# xmcd
# Track frame offsets:
# 150
# 17310
# 37457
# 51262
# 61975
# 74555
# 88310
# 101757
# 113150
# 122382
# 131415
# 143977
# 156150
# 174185
# 190065
# 204192
# 220347
# 231065
# 241642
# 253727
# 266952
# 280030
#
# Disc length: 3936 seconds
# Revision: 0
# Processed by: cddbd v1.4PL0 Copyright (c) Steve Scherf et al.
# Submitted via: VisiTrax 2.9.3.170 - For more info visit www.synapsa.com
#
DISCID=3f0f5e16
DTITLE=Eartha Kitt - Singin' The Blues
DYEAR=2000
DGENRE=Blues
TTITLE0=Moon River
TTITLE1=Here's To Life
TTITLE2=Smoke Gets In My Eyes
TTITLE3=Lazy Afternoon
TTITLE4=St Louis Blues
TTITLE5=My Heart Belongs to Daddy
TTITLE6=C'est Ci Bon
TTITLE7=Mademoiselle Kitt
TTITLE8=A Woman Wouldn't Be A Woman
TTITLE9=Put More Wood On The Fire
TTITLE10=Somebody Stole Da Wedding Bell
TTITLE11=Under the Bridges of Paris
TTITLE12=Thursday's Child
TTITLE13=I Want To Be Evil
TTITLE14=Let's Do It
TTITLE15=The Blues
TTITLE16=Take My Love
TTITLE17=Nobody Taught Me
TTITLE18=Two Lost Lovers
TTITLE19=Lovin' Spree
TTITLE20=Just An Old Fashioned Girl
TTITLE21=Santa Baby
EXTD=
EXTT0=
EXTT1=
EXTT2=
EXTT3=
EXTT4=
EXTT5=
EXTT6=
EXTT7=
EXTT8=
EXTT9=
EXTT10=
EXTT11=
EXTT12=
EXTT13=
EXTT14=
EXTT15=
EXTT16=
EXTT17=
EXTT18=
EXTT19=
EXTT20=
EXTT21=
PLAYORDER=
